<svg width="24" height="24" viewBox="0 0 24 24" fill="none" xmlns="http://www.w3.org/2000/svg">
<path fill-rule="evenodd" clip-rule="evenodd" d="M12.8529 5.26859C14.7741 3.2438 17.872 3.2438 19.7932 5.26859C21.7356 7.31567 21.7356 10.6501 19.7932 12.6972L13.6322 19.1903C12.745 20.1253 11.2551 20.1253 10.3678 19.1903L4.20682 12.6972C2.26441 10.6501 2.26441 7.31568 4.20682 5.26859C6.12808 3.2438 9.22592 3.2438 11.1472 5.26859C11.6108 5.75717 12.3893 5.75717 12.8529 5.26859ZM20.8813 4.23612C18.4456 1.66908 14.5267 1.59045 12 4.00021C9.47338 1.59045 5.55448 1.66908 3.11871 4.23612C0.627117 6.86198 0.627119 11.1038 3.11871 13.7297L9.27973 20.2227C10.7585 21.7811 13.2416 21.7811 14.7203 20.2227L20.8813 13.7297C23.3729 11.1038 23.3729 6.86197 20.8813 4.23612Z" fill="white"/>
</svg>
