<svg width="24" height="24" viewBox="0 0 24 24" fill="none" xmlns="http://www.w3.org/2000/svg">
<path d="M22.8 12C23.4627 12 24.0062 12.5386 23.9401 13.198C23.7444 15.1481 23.0732 17.0272 21.9776 18.6668C20.6591 20.6402 18.7849 22.1783 16.5922 23.0866C14.3995 23.9948 11.9867 24.2324 9.65892 23.7694C7.33114 23.3064 5.19295 22.1635 3.51472 20.4853C1.83649 18.8071 0.693599 16.6689 0.230577 14.3411C-0.232446 12.0133 0.00519403 9.60051 0.913446 7.4078C1.8217 5.21509 3.35977 3.34094 5.33316 2.02236C6.97284 0.926763 8.85187 0.255605 10.802 0.0599457C11.4614 -0.00621769 12 0.537258 12 1.2C12 1.86274 11.4607 2.39227 10.8031 2.4749C9.32851 2.66019 7.9113 3.18616 6.66653 4.01789C5.08781 5.07275 3.85736 6.57207 3.13076 8.32624C2.40415 10.0804 2.21404 12.0106 2.58446 13.8729C2.95488 15.7351 3.86919 17.4456 5.21177 18.7882C6.55436 20.1308 8.26492 21.0451 10.1271 21.4155C11.9894 21.786 13.9196 21.5958 15.6738 20.8692C17.4279 20.1426 18.9272 18.9122 19.9821 17.3335C20.8138 16.0887 21.3398 14.6715 21.5251 13.1969C21.6077 12.5393 22.1373 12 22.8 12Z" fill="url(#paint0_angular_300_38)"/>
<defs>
<radialGradient id="paint0_angular_300_38" cx="0" cy="0" r="1" gradientUnits="userSpaceOnUse" gradientTransform="translate(12 12) rotate(90) scale(12)">
<stop offset="0.489607" stop-color="white" stop-opacity="0"/>
<stop offset="0.751555" stop-color="#D9D9D9"/>
</radialGradient>
</defs>
</svg>
