<svg width="56" height="56" viewBox="0 0 56 56" fill="none" xmlns="http://www.w3.org/2000/svg">
<path fill-rule="evenodd" clip-rule="evenodd" d="M0 28C0 12.536 12.536 0 28 0C43.464 0 56 12.536 56 28C56 43.464 43.464 56 28 56C12.536 56 0 43.464 0 28ZM19 19C19 17.3431 20.3431 16 22 16C23.6569 16 25 17.3431 25 19V37C25 38.6569 23.6569 40 22 40C20.3431 40 19 38.6569 19 37V19ZM34 16C32.3431 16 31 17.3431 31 19V37C31 38.6569 32.3431 40 34 40C35.6569 40 37 38.6569 37 37V19C37 17.3431 35.6569 16 34 16Z" fill="white"/>
</svg>
