<svg width="24" height="24" viewBox="0 0 24 24" fill="none" xmlns="http://www.w3.org/2000/svg">
<path fill-rule="evenodd" clip-rule="evenodd" d="M16.0263 2.05986C16.4075 1.66019 17.0405 1.64517 17.4401 2.02632L19.5162 4.00614C19.7128 4.19364 19.8247 4.45308 19.826 4.72477C19.8274 4.99646 19.7182 5.25702 19.5234 5.4465L17.4474 7.46668C17.0516 7.85185 16.4185 7.84321 16.0333 7.4474C15.6482 7.05159 15.6568 6.41848 16.0526 6.03332L16.3438 5.75H6.75C5.09315 5.75 3.75 7.09315 3.75 8.75V14.75C3.75 15.3023 3.30228 15.75 2.75 15.75C2.19772 15.75 1.75 15.3023 1.75 14.75V8.75C1.75 5.98858 3.98858 3.75 6.75 3.75H16.3496L16.0599 3.47368C15.6602 3.09253 15.6452 2.45954 16.0263 2.05986ZM7.95711 21.9571C7.56658 22.3476 6.93342 22.3476 6.54289 21.9571L5.21289 20.6271L4.54289 19.9571C4.35983 19.774 4.26259 19.5377 4.25114 19.298C4.25038 19.282 4.25 19.266 4.25 19.25C4.25 19.1144 4.27699 18.9851 4.32588 18.8672C4.37468 18.7493 4.44702 18.6388 4.54289 18.5429L6.54289 16.5429C6.93342 16.1524 7.56658 16.1524 7.95711 16.5429C8.34763 16.9334 8.34763 17.5666 7.95711 17.9571L7.66421 18.25H17.25C18.9069 18.25 20.25 16.9069 20.25 15.25V9.25C20.25 8.69772 20.6977 8.25 21.25 8.25C21.8023 8.25 22.25 8.69772 22.25 9.25V15.25C22.25 18.0114 20.0114 20.25 17.25 20.25H7.66421L7.95711 20.5429C8.34763 20.9334 8.34763 21.5666 7.95711 21.9571Z" fill="white" fill-opacity="0.65"/>
</svg>
