<svg width="24" height="24" viewBox="0 0 24 24" fill="none" xmlns="http://www.w3.org/2000/svg">
<path fill-rule="evenodd" clip-rule="evenodd" d="M17.4401 2.02632C17.0405 1.64517 16.4075 1.66019 16.0263 2.05986C15.6452 2.45954 15.6602 3.09253 16.0599 3.47368L16.3496 3.75H6.75C3.98858 3.75 1.75 5.98858 1.75 8.75V14.75C1.75 15.3023 2.19772 15.75 2.75 15.75C3.30228 15.75 3.75 15.3023 3.75 14.75V8.75C3.75 7.09315 5.09315 5.75 6.75 5.75H16.3438L16.0526 6.03332C15.6568 6.41848 15.6482 7.05159 16.0333 7.4474C16.4185 7.84321 17.0516 7.85185 17.4474 7.46668L19.5234 5.4465C19.7182 5.25702 19.8274 4.99646 19.826 4.72477C19.8247 4.45308 19.7128 4.19364 19.5162 4.00614L17.4401 2.02632ZM6.54289 21.9571C6.93342 22.3476 7.56658 22.3476 7.95711 21.9571C8.34763 21.5666 8.34763 20.9334 7.95711 20.5429L7.66421 20.25H17.25C20.0114 20.25 22.25 18.0114 22.25 15.25V9.25C22.25 8.69772 21.8023 8.25 21.25 8.25C20.6977 8.25 20.25 8.69772 20.25 9.25V15.25C20.25 16.9069 18.9069 18.25 17.25 18.25H7.66421L7.95711 17.9571C8.34763 17.5666 8.34763 16.9334 7.95711 16.5429C7.56658 16.1524 6.93342 16.1524 6.54289 16.5429L4.54289 18.5429C4.44702 18.6388 4.37468 18.7493 4.32588 18.8672C4.27699 18.9851 4.25 19.1144 4.25 19.25C4.25 19.266 4.25038 19.282 4.25114 19.298C4.26259 19.5377 4.35983 19.774 4.54289 19.9571L5.21289 20.6271L6.54289 21.9571ZM11.5118 16.0827C11.5118 16.1662 11.5368 16.2371 11.5869 16.2956C11.6453 16.354 11.7205 16.3832 11.8123 16.3832H12.952C13.0355 16.3832 13.1064 16.354 13.1649 16.2956C13.2233 16.2371 13.2525 16.1662 13.2525 16.0827V7.91733C13.2525 7.83384 13.2233 7.76287 13.1649 7.70443C13.1064 7.64598 13.0355 7.61676 12.952 7.61676H11.8499C11.7915 7.61676 11.7372 7.62093 11.6871 7.62928C11.637 7.63763 11.5869 7.66268 11.5368 7.70443L8.73154 9.871C8.65639 9.92109 8.61047 9.98788 8.59378 10.0714C8.58543 10.1549 8.6063 10.2342 8.65639 10.3093L9.18238 10.9856C9.24083 11.0607 9.30762 11.1067 9.38276 11.1234C9.4579 11.1317 9.53304 11.1108 9.60818 11.0607L11.5118 9.59548V16.0827Z" fill="white"/>
</svg>
