<svg width="24" height="24" viewBox="0 0 24 24" fill="none" xmlns="http://www.w3.org/2000/svg">
<path fill-rule="evenodd" clip-rule="evenodd" d="M10.4415 2.25C9.25778 2.25 8.2069 3.00743 7.83259 4.13037L7.45938 5.25H6.41767C4.39146 5.25 3.23485 7.56321 4.45058 9.18418C4.96946 9.87601 5.24995 10.7175 5.24995 11.5823V18C5.24995 20.6234 7.3766 22.75 9.99995 22.75H13.9999C16.6233 22.75 18.7499 20.6234 18.7499 18V11.5823C18.7499 10.7175 19.0304 9.87601 19.5493 9.18418C20.765 7.56321 19.6084 5.25 17.5822 5.25H16.5405L16.1673 4.13037C15.793 3.00743 14.7421 2.25 13.5584 2.25H10.4415ZM15.9824 6.75C15.994 6.75027 16.0056 6.75027 16.0172 6.75H17.5822C18.3724 6.75 18.8234 7.65206 18.3493 8.28418C17.6357 9.23566 17.2499 10.3929 17.2499 11.5823V18C17.2499 19.7949 15.7949 21.25 13.9999 21.25H9.99995C8.20502 21.25 6.74995 19.7949 6.74995 18V11.5823C6.74995 10.3929 6.36419 9.23566 5.65058 8.28418C5.1765 7.65206 5.62753 6.75 6.41767 6.75H7.98265C7.99428 6.75027 8.00589 6.75027 8.01746 6.75H15.9824ZM14.9594 5.25L14.7443 4.60472C14.5741 4.09429 14.0965 3.75 13.5584 3.75H10.4415C9.90343 3.75 9.42576 4.09429 9.25561 4.60472L9.04052 5.25H14.9594ZM14.7499 11C14.7499 10.5858 14.4142 10.25 13.9999 10.25C13.5857 10.25 13.2499 10.5858 13.2499 11V17C13.2499 17.4142 13.5857 17.75 13.9999 17.75C14.4142 17.75 14.7499 17.4142 14.7499 17V11ZM9.99995 10.25C10.4142 10.25 10.7499 10.5858 10.7499 11L10.7499 17C10.7499 17.4142 10.4142 17.75 9.99995 17.75C9.58574 17.75 9.24995 17.4142 9.24995 17L9.24995 11C9.24995 10.5858 9.58574 10.25 9.99995 10.25Z" fill="white"/>
</svg>
